Coordinates
version=1
nRows=37
nColumns=38
inDegrees=no

Units are S.I. units (second, meters, Newtons, ...)
If the header above contains a line with 'inDegrees', this indicates whether rotational values are in degrees (yes) or radians (no).

endheader
time	pelvis_tilt	pelvis_list	pelvis_rotation	pelvis_tx	pelvis_ty	pelvis_tz	hip_flexion_r	hip_adduction_r	hip_rotation_r	knee_angle_r	ankle_angle_r	subtalar_angle_r	mtp_angle_r	hip_flexion_l	hip_adduction_l	hip_rotation_l	knee_angle_l	ankle_angle_l	subtalar_angle_l	mtp_angle_l	lumbar_extension	lumbar_bending	lumbar_rotation	arm_flex_r	arm_add_r	arm_rot_r	elbow_flex_r	pro_sup_r	wrist_flex_r	wrist_dev_r	arm_flex_l	arm_add_l	arm_rot_l	elbow_flex_l	pro_sup_l	wrist_flex_l	wrist_dev_l
0.66	-3.12756	1.46902	-1.48199	0.584394	0.118165	0.930867	0.374929	-0.10591	-0.273414	0.358423	0.153314	0	0	-0.324086	0.0669006	-0.0199762	0	0.142654	0	0	-0.288977	-0.12099	-0.207445	-0.0550647	-0.183237	0.123389	0.463076	1.04222	0	0	-0.00144999	-0.456239	0.311027	0.776635	1.18825	0	0
0.67	3.12064	1.47218	-1.44802	0.585391	0.126973	0.929525	0.347046	-0.0785862	-0.226813	0.246003	0.125535	0	0	-0.331062	0.0618496	-0.0222438	0	0.150703	0	0	-0.28826	-0.116969	-0.203419	-0.0515593	-0.181274	0.118834	0.459418	1.05147	0	0	0.00359662	-0.45272	0.308796	0.777416	1.19893	0	0
0.68	-3.10449	1.47815	-1.50676	0.586701	0.136759	0.927035	0.367293	-0.0867086	-0.270552	0.24016	0.142181	0	0	-0.33724	0.0661301	-0.0246713	0	0.159157	0	0	-0.282644	-0.123896	-0.200484	-0.0526568	-0.178293	0.113291	0.457428	1.06191	0	0	0.00449741	-0.452646	0.307694	0.782895	1.20938	0	0
0.69	-3.12051	1.48176	-1.49216	0.587702	0.146182	0.925407	0.337237	-0.0644711	-0.221221	0.132542	0.111478	0	0	-0.344706	0.0632585	-0.0267771	0	0.16716	0	0	-0.280328	-0.121713	-0.196547	-0.050302	-0.176774	0.108873	0.453846	1.07156	0	0	0.00751846	-0.449514	0.306624	0.783675	1.21812	0	0
0.7	-3.0713	1.48615	-1.54366	0.589179	0.156223	0.923053	0.353142	-0.0677133	-0.256087	0.129378	0.126966	0	0	-0.352417	0.0661156	-0.0302417	0	0.175181	0	0	-0.275616	-0.126775	-0.192182	-0.0507801	-0.174796	0.106145	0.451568	1.08102	0	0	0.00781536	-0.449066	0.306669	0.787341	1.22657	0	0
0.71	-3.04058	1.48988	-1.57536	0.590271	0.166343	0.920943	0.349151	-0.061846	-0.257848	0.0916365	0.123856	0	0	-0.360497	0.0668019	-0.0309451	0	0.182901	0	0	-0.271589	-0.12862	-0.189297	-0.0503289	-0.173619	0.10286	0.449145	1.08893	0	0	0.00821499	-0.447532	0.307672	0.788583	1.23468	0	0
0.72	-3.0304	1.49096	-1.58576	0.591059	0.176796	0.919189	0.319089	-0.0484014	-0.215556	0.0112732	0.0899345	0	0	-0.371673	0.0655602	-0.0305274	0	0.190026	0	0	-0.27044	-0.127459	-0.187742	-0.0493702	-0.17323	0.0987581	0.447599	1.09409	0	0	0.00771377	-0.444941	0.307467	0.789076	1.24102	0	0
0.73	-3.00534	1.49251	-1.61229	0.592103	0.187384	0.917126	0.318945	-0.0455455	-0.220459	0	0.0854401	0	0	-0.38229	0.0657211	-0.036476	0	0.20309	0	0	-0.267568	-0.128103	-0.18516	-0.0513356	-0.177198	0.122275	0.453605	1.03468	0	0	0.00722022	-0.447774	0.324574	0.793798	1.20395	0	0
0.74	-2.98957	1.48975	-1.6281	0.592771	0.198359	0.915656	0.315347	-0.0431744	-0.230151	0	0.0848003	0	0	-0.397822	0.0647638	-0.0327826	0	0.204179	0	0	-0.269753	-0.126678	-0.185234	-0.0499662	-0.177518	0.119778	0.452201	1.05098	0	0	0.00403906	-0.442975	0.31583	0.79327	1.21772	0	0
0.75	-2.95841	1.49029	-1.65506	0.593342	0.209953	0.91395	0.309115	-0.0407781	-0.232857	0	0.080926	0	0	-0.416648	0.058758	-0.0394801	0	0.213714	0	0	-0.267869	-0.126078	-0.187703	-0.048233	-0.17089	0.0799553	0.442271	1.13888	0	0	0.000605674	-0.436189	0.299108	0.788038	1.27898	0	0
0.76	-2.93535	1.48843	-1.67659	0.593853	0.221148	0.912515	0.320309	-0.0451875	-0.268622	0.0381604	0.0981871	0	0	-0.425377	0.0572592	-0.0384674	0	0.219777	0	0	-0.268508	-0.124602	-0.18998	-0.0474308	-0.171703	0.0812321	0.44234	1.14153	0	0	-0.00320758	-0.433722	0.29905	0.786579	1.28109	0	0
0.77	-2.93577	1.48474	-1.67223	0.594181	0.232697	0.911476	0.309754	-0.0428476	-0.264566	0.0467734	0.0887702	0	0	-0.433077	0.0526432	-0.0434818	0.016005	0.228622	0	0	-0.270941	-0.120513	-0.194912	-0.0477754	-0.175049	0.0966477	0.446158	1.11632	0	0	-0.00817618	-0.431599	0.301329	0.784606	1.2718	0	0
0.78	-2.90634	1.48249	-1.69745	0.594406	0.244515	0.910179	0.330808	-0.056685	-0.321562	0.123153	0.118647	0	0	-0.433465	0.0497175	-0.0589841	0.0471782	0.243708	0	0	-0.271159	-0.118575	-0.20084	-0.048229	-0.175692	0.0949386	0.447549	1.12398	0	0	-0.0147169	-0.428768	0.299666	0.781728	1.27702	0	0
0.79	-2.89275	1.48078	-1.70472	0.594469	0.256633	0.909036	0.331585	-0.0617215	-0.339943	0.155888	0.126335	0	0	-0.432389	0.0437939	-0.0730486	0.0805809	0.256897	0	0	-0.270532	-0.114457	-0.20881	-0.0493389	-0.176302	0.0938851	0.448765	1.12985	0	0	-0.0219798	-0.425788	0.298508	0.777729	1.28033	0	0
0.8	-2.90202	1.47961	-1.68898	0.594711	0.268894	0.908067	0.328013	-0.0619772	-0.348365	0.175308	0.123444	0	0	-0.427919	0.0342104	-0.0917968	0.120459	0.270854	0	0	-0.269307	-0.108015	-0.216382	-0.0505862	-0.176557	0.0925609	0.449254	1.13597	0	0	-0.0289823	-0.422473	0.297785	0.772264	1.28266	0	0
0.81	-2.93251	1.47941	-1.65252	0.595212	0.281288	0.907247	0.322356	-0.0580353	-0.351183	0.184034	0.105964	0	0	-0.419996	0.0211121	-0.113352	0.165603	0.283756	0	0	-0.26705	-0.0994761	-0.223005	-0.0517262	-0.176282	0.0902821	0.44882	1.1421	0	0	-0.0359369	-0.419021	0.297905	0.764985	1.28502	0	0
0.82	-2.9788	1.48012	-1.60091	0.595999	0.293802	0.906571	0.315127	-0.0511906	-0.352175	0.185676	0.0759602	0	0	-0.408361	0.00495991	-0.136275	0.216085	0.294122	0	0	-0.263417	-0.0896219	-0.22837	-0.0529342	-0.175365	0.0868825	0.447544	1.14817	0	0	-0.0426541	-0.415673	0.299426	0.755998	1.28817	0	0
0.83	-3.06261	1.48425	-1.51173	0.597182	0.306245	0.90569	0.311326	-0.0408328	-0.354472	0.187561	0.0436416	0	0	-0.382149	-0.0199159	-0.174767	0.290189	0.311465	0	0	-0.255721	-0.0769074	-0.232903	-0.0546135	-0.174727	0.0878645	0.447055	1.1431	0	0	-0.0491651	-0.413455	0.304795	0.746954	1.2815	0	0
0.84	-3.11941	1.48284	-1.45242	0.598335	0.318962	0.9057	0.304158	-0.0347391	-0.360566	0.198544	0.0268811	0	0	-0.372587	-0.0367336	-0.185796	0.337055	0.303285	0	0	-0.253455	-0.0666847	-0.235074	-0.0555878	-0.173725	0.0822277	0.445891	1.15093	0	0	-0.0557201	-0.409585	0.305333	0.737744	1.28694	0	0
0.85	3.08049	1.48061	-1.3673	0.599631	0.331595	0.906069	0.299116	-0.0270978	-0.368287	0.216931	0.0212095	0	0	-0.356343	-0.0592792	-0.203715	0.397409	0.291451	0	0	-0.251586	-0.0537604	-0.23592	-0.0562464	-0.17324	0.0769646	0.445146	1.15809	0	0	-0.0613388	-0.405264	0.30671	0.727357	1.2918	0	0
0.86	2.94799	1.47613	-1.238	0.600427	0.343697	0.906725	0.296605	-0.0160979	-0.377341	0.24219	0.0249002	0	0	-0.333238	-0.0749175	-0.208683	0.466984	0.260758	0	0	-0.250917	-0.0346791	-0.233175	-0.0546978	-0.174717	0.0733809	0.44513	1.16469	0	0	-0.0665403	-0.399525	0.308492	0.717008	1.29625	0	0
0.87	2.88551	1.47269	-1.17195	0.602704	0.356412	0.907992	0.293388	-0.00791349	-0.37769	0.268662	0.0323014	0	0	-0.311658	-0.112696	-0.233	0.533811	0.233598	0	0	-0.249536	-0.0239389	-0.233509	-0.0562099	-0.173466	0.0712794	0.444854	1.17007	0	0	-0.0708239	-0.396182	0.310084	0.707195	1.29992	0	0
0.88	2.78306	1.47021	-1.07189	0.604579	0.368448	0.908968	0.292993	0.00356018	-0.377885	0.290888	0.0400073	0	0	-0.279833	-0.140818	-0.242187	0.607633	0.187235	0	0	-0.245815	-0.00942243	-0.230297	-0.0556258	-0.173844	0.0714769	0.445397	1.17439	0	0	-0.0761092	-0.392087	0.311222	0.699337	1.3033	0	0
0.89	2.66926	1.4708	-0.962309	0.606717	0.38034	0.909491	0.296304	0.0150365	-0.378811	0.309768	0.0461205	0	0	-0.239737	-0.16867	-0.247968	0.684339	0.127492	0	0	-0.237367	0.00355255	-0.225955	-0.0554444	-0.174442	0.0763675	0.44593	1.17619	0	0	-0.0827406	-0.388854	0.312522	0.694068	1.30672	0	0
0.9	2.579	1.47135	-0.878879	0.609035	0.392081	0.910022	0.295011	0.0265221	-0.376463	0.319041	0.0481325	0	0	-0.200995	-0.190911	-0.247942	0.755251	0.065186	0	0	-0.229785	0.0132554	-0.219621	-0.0553178	-0.175626	0.0864808	0.446907	1.17265	0	0	-0.0901153	-0.386958	0.314298	0.69317	1.30727	0	0
0.91	2.48889	1.47274	-0.79683	0.61151	0.403602	0.910307	0.291703	0.0388081	-0.372179	0.321325	0.0499684	0	0	-0.159518	-0.211025	-0.246263	0.82565	0.00148401	0	0	-0.220826	0.0213564	-0.213071	-0.057191	-0.18357	0.136811	0.455358	1.10442	0	0	-0.0988841	-0.38765	0.321074	0.697435	1.29396	0	0
0.92	2.43682	1.47307	-0.75433	0.614081	0.414974	0.910935	0.282683	0.0498763	-0.365897	0.318881	0.0528563	0	0	-0.122839	-0.226277	-0.242504	0.889478	-0.0587266	0	0	-0.215807	0.0266071	-0.204294	-0.0572032	-0.184894	0.148397	0.456204	1.09722	0	0	-0.106138	-0.387887	0.324076	0.7014	1.29206	0	0
0.93	2.38777	1.47446	-0.71512	0.616737	0.426077	0.911529	0.273392	0.0604229	-0.357184	0.313833	0.0556371	0	0	-0.0841581	-0.239499	-0.23666	0.951502	-0.121971	0	0	-0.210555	0.0301985	-0.194582	-0.057367	-0.182602	0.138263	0.454147	1.12553	0	0	-0.112408	-0.388453	0.326001	0.706129	1.29783	0	0
0.94	2.38503	1.47487	-0.722654	0.61932	0.437077	0.912606	0.260316	0.0681761	-0.346516	0.310271	0.059511	0	0	-0.0515636	-0.248234	-0.22981	1.00639	-0.178996	0	0	-0.209793	0.0310142	-0.184548	-0.05942	-0.18435	0.148787	0.458878	1.1083	0	0	-0.117395	-0.388968	0.327151	0.710248	1.29723	0	0
0.95	2.40187	1.47482	-0.749169	0.62174	0.447905	0.914004	0.245854	0.0747195	-0.332884	0.307571	0.0627146	0	0	-0.0217509	-0.254486	-0.222765	1.05579	-0.224091	0	0	-0.211268	0.0306877	-0.174541	-0.061549	-0.184424	0.145557	0.462569	1.11075	0	0	-0.120678	-0.389368	0.328987	0.712726	1.29929	0	0
0.96	2.42732	1.47416	-0.783397	0.623926	0.458618	0.915658	0.23069	0.0803726	-0.31856	0.305814	0.0658687	0	0	0.0052463	-0.258254	-0.215579	1.09907	-0.246405	0	0	-0.213879	0.0302085	-0.165238	-0.0643489	-0.184968	0.13939	0.467819	1.11366	0	0	-0.122949	-0.389337	0.331263	0.714312	1.30163	0	0
0.97	2.46163	1.47293	-0.825488	0.625888	0.469264	0.917553	0.214369	0.0847221	-0.305323	0.304602	0.0703297	0	0	0.0298191	-0.259561	-0.207643	1.13866	-0.236891	0	0	-0.217408	0.0293977	-0.157138	-0.0670626	-0.185895	0.131707	0.473194	1.11736	0	0	-0.124776	-0.389159	0.333583	0.715374	1.30411	0	0
0.98	2.50253	1.47191	-0.873797	0.627685	0.479796	0.919571	0.196924	0.0876092	-0.29287	0.302304	0.0759519	0	0	0.054585	-0.258625	-0.198431	1.17921	-0.199903	0	0	-0.221019	0.027649	-0.149884	-0.0691878	-0.187031	0.122798	0.477904	1.1242	0	0	-0.126545	-0.388735	0.335437	0.716202	1.30726	0	0
0.99	2.57127	1.47573	-0.950567	0.629503	0.490364	0.92109	0.176887	0.0894562	-0.270879	0.288023	0.0792831	0	0	0.081603	-0.250722	-0.189487	1.21844	-0.151993	0	0	-0.221125	0.0196103	-0.143937	-0.0714573	-0.188156	0.117103	0.481915	1.12932	0	0	-0.130575	-0.389575	0.335974	0.719263	1.30905	0	0
1	2.62678	1.47635	-1.0158	0.631272	0.500271	0.923166	0.159967	0.0892248	-0.257075	0.282829	0.0827131	0	0	0.106543	-0.245391	-0.183056	1.25127	-0.108792	0	0	-0.224124	0.0147742	-0.13614	-0.0708686	-0.19032	0.112264	0.484319	1.13564	0	0	-0.131964	-0.388529	0.336154	0.720223	1.30988	0	0
1.01	2.61137	1.46127	-1.00724	0.632562	0.509642	0.927398	0.136179	0.100242	-0.25452	0.283782	0.0794457	0	0	0.121068	-0.255188	-0.174066	1.27416	-0.0769952	0	0	-0.239504	0.0264395	-0.12813	-0.0649219	-0.19348	0.102886	0.480951	1.15517	0	0	-0.126742	-0.38188	0.335878	0.712403	1.30621	0	0
1.02	2.70252	1.47544	-1.10476	0.634445	0.519725	0.927746	0.125912	0.0864478	-0.248707	0.27294	0.0894973	0	0	0.156276	-0.237021	-0.166975	1.29412	-0.0524023	0	0	-0.229132	0.00934855	-0.126756	-0.066064	-0.194403	0.109457	0.480886	1.1468	0	0	-0.133368	-0.385152	0.335525	0.719106	1.30086	0	0
